<svg xmlns="http://www.w3.org/2000/svg" viewBox="0 0 120 120" width="120" height="120">
  <defs>
    <!-- Premium Deep Navy to Electric Blue with subtle purple accent -->
    <linearGradient id="ld-brand-grad" x1="0%" y1="0%" x2="100%" y2="100%">
      <stop offset="0%" stop-color="#071A3D"/>
      <stop offset="35%" stop-color="#0B3C8A"/>
      <stop offset="70%" stop-color="#1769E0"/>
      <stop offset="100%" stop-color="#6366F1"/>
    </linearGradient>

    <!-- White-to-Ice gradient for dark mode -->
    <linearGradient id="ld-white-grad" x1="0%" y1="0%" x2="100%" y2="100%">
      <stop offset="0%" stop-color="#FFFFFF"/>
      <stop offset="100%" stop-color="#EAF4FF"/>
    </linearGradient>

    <!-- App Icon Deep Blue Gradient Background: #071A3D -> #1769E0 -->
    <linearGradient id="ld-app-bg" x1="0%" y1="0%" x2="100%" y2="100%">
      <stop offset="0%" stop-color="#071A3D"/>
      <stop offset="55%" stop-color="#0D47A1"/>
      <stop offset="100%" stop-color="#1769E0"/>
    </linearGradient>

    <!-- AI Spark Accent Gradient -->
    <linearGradient id="ld-spark-grad" x1="0%" y1="0%" x2="100%" y2="100%">
      <stop offset="0%" stop-color="#38BDF8"/>
      <stop offset="100%" stop-color="#0284C7"/>
    </linearGradient>
  </defs>
  <rect width="120" height="120" rx="28" fill="#FFFFFF"/>
  <path d="M 26 28 C 26 24.686 28.686 22 32 22 L 38 22 C 41.314 22 44 24.686 44 28 L 44 78 L 62 78 C 72.493 78 81 69.941 81 60 C 81 50.059 72.493 42 62 42 L 53 42 C 50.791 42 49 40.209 49 38 L 49 28 C 49 25.791 50.791 24 53 24 L 62 24 C 81.882 24 98 40.118 98 60 C 98 79.882 81.882 96 62 96 L 32 96 C 28.686 96 26 93.314 26 90 Z" fill="url(#ld-brand-grad)"/>
  <path d="M 62.5 51 Q 62.5 60 71.5 60 Q 62.5 60 62.5 69 Q 62.5 60 53.5 60 Q 62.5 60 62.5 51 Z" fill="#0284C7"/>
</svg>